<svg xmlns="http://www.w3.org/2000/svg" width="35" height="29" viewBox="0 0 35 29">
  <metadata><?xpacket begin="﻿" id="W5M0MpCehiHzreSzNTczkc9d"?>
<x:xmpmeta xmlns:x="adobe:ns:meta/" x:xmptk="Adobe XMP Core 5.6-c138 79.159824, 2016/09/14-01:09:01        ">
   <rdf:RDF xmlns:rdf="http://www.w3.org/1999/02/22-rdf-syntax-ns#">
      <rdf:Description rdf:about=""/>
   </rdf:RDF>
</x:xmpmeta>
                                                                                                    
                                                                                                    
                                                                                                    
                                                                                                    
                                                                                                    
                                                                                                    
                                                                                                    
                                                                                                    
                                                                                                    
                                                                                                    
                                                                                                    
                                                                                                    
                                                                                                    
                                                                                                    
                                                                                                    
                                                                                                    
                                                                                                    
                                                                                                    
                                                                                                    
                                                                                                    
                           
<?xpacket end="w"?></metadata>
<defs>
    <style>
      .cls-1 {
        fill: #fff;
        fill-rule: evenodd;
      }
    </style>
  </defs>
  <path id="Forma_1" data-name="Forma 1" class="cls-1" d="M473.694,4862.29c5.9,0.06,9.594-.31,10.094,6.27h7.194c0-10.19-8.835-11.57-17.475-11.57s-17.476,1.38-17.476,11.57h7.138C463.722,4861.86,467.844,4862.23,473.694,4862.29Zm-14.1,9.55c1.752,0,3.21.11,3.534-1.63a4.418,4.418,0,0,0,.069-0.81H456C456,4871.98,457.609,4871.84,459.6,4871.84Zm24.235-2.44h-0.067a3.913,3.913,0,0,0,.076.81c0.342,1.6,1.8,1.5,3.544,1.5,2,0,3.62.13,3.62-2.31h-7.173Zm-3.514-1.76v-1.02c0-.46-0.526-0.49-1.173-0.49h-1.059c-0.648,0-1.173.03-1.173,0.49v1.56h-7.491v-1.56c0-.46-0.525-0.49-1.173-0.49h-1.059c-0.648,0-1.173.03-1.173,0.49v1.92c-1.706,1.78-7.29,9.38-7.493,10.3l0,6.14a1.024,1.024,0,0,0,1.022,1.02h27.239a1.024,1.024,0,0,0,1.022-1.02v-6.17c-0.2-.89-5.784-8.49-7.491-10.27v-0.9Zm-11.265,12.02a1,1,0,1,1,.993-0.99A0.99,0.99,0,0,1,469.055,4879.66Zm0-3.42a1,1,0,1,1,.993-1A1,1,0,0,1,469.055,4876.24Zm0-3.43a1,1,0,1,1,.993-1A1,1,0,0,1,469.055,4872.81Zm4.086,6.85a1,1,0,1,1,.993-0.99A0.99,0.99,0,0,1,473.141,4879.66Zm0-3.42a1,1,0,1,1,.993-1A1,1,0,0,1,473.141,4876.24Zm0-3.43a1,1,0,1,1,.993-1A1,1,0,0,1,473.141,4872.81Zm4.086,6.85a1,1,0,1,1,.993-0.99A0.989,0.989,0,0,1,477.227,4879.66Zm0-3.42a1,1,0,1,1,.993-1A1,1,0,0,1,477.227,4876.24Zm0-3.43a1,1,0,1,1,.993-1A1,1,0,0,1,477.227,4872.81Z" transform="translate(-456 -4857)"/>
</svg>
